<svg width="24" height="25" viewBox="0 0 24 25" fill="none" xmlns="http://www.w3.org/2000/svg">
<rect y="0.804565" width="24" height="24" rx="4" fill="#FFE8EC"/>
<path d="M13.5434 16.5748C13.6335 16.5461 14.3486 16.334 14.9615 16.9095C15.1929 17.1268 15.3363 17.3874 15.425 17.6128C15.5166 17.8456 15.3366 18.0962 15.0864 18.0962H12.4208C12.1765 18.0962 12.0032 17.8581 12.0782 17.6256L12.2995 16.9399C12.7141 16.8182 13.1288 16.6964 13.5434 16.5748Z" fill="#F7BC23"/>
<path opacity="0.09" d="M14.6046 17.5891C14.5524 17.4087 14.6401 17.2177 14.8147 17.1484C14.9127 17.1095 15.0119 17.0677 15.0826 17.0344C15.043 16.9912 15.0034 16.948 14.9602 16.9084C14.3482 16.3324 13.6354 16.5448 13.5454 16.5736C13.133 16.6945 12.7242 16.8153 12.3155 16.9362C12.3094 16.9378 12.3042 16.9374 12.2981 16.9392L12.0785 17.6268C12.0029 17.8572 12.1757 18.0948 12.4205 18.0948H14.3105C14.6736 18.0948 14.6719 17.8217 14.6046 17.5891Z" fill="black"/>
<path d="M13.8447 18.0945H11.1833C10.9391 18.0945 10.7667 17.8575 10.8421 17.624L10.9068 17.4193L11.0612 16.9416C11.4779 16.8195 11.8909 16.6974 12.3039 16.5753C12.3937 16.5465 13.1084 16.3346 13.719 16.9093C13.8734 17.0566 13.9884 17.2182 14.071 17.3762C14.1177 17.4588 14.1536 17.5378 14.1823 17.6133C14.2829 17.8755 14.1249 18.0945 13.8447 18.0945Z" fill="#FFD731"/>
<path opacity="0.09" d="M13.719 16.9093C13.1084 16.3346 12.3937 16.5465 12.3039 16.5753C11.9509 16.6796 11.5971 16.784 11.2419 16.8884C11.2415 16.8881 11.2412 16.888 11.2408 16.8877C11.1833 16.9057 11.1223 16.9237 11.0612 16.9416L10.9068 17.4193L10.8421 17.624C10.7667 17.8575 10.9391 18.0945 11.1833 18.0945H11.6574C11.3969 18.0344 11.3446 17.8177 11.3434 17.6578C11.3427 17.56 11.428 17.4839 11.5254 17.4931C11.7512 17.5143 12.1702 17.5486 12.5086 17.5486C13.0689 17.5486 13.5897 17.4911 14.071 17.3762C13.9884 17.2182 13.8734 17.0566 13.719 16.9093Z" fill="black"/>
<path d="M8.22471 16.2108C5.91126 19.1607 3.82422 21.151 4.14867 21.5963C4.95172 22.6983 9.83307 19.2228 11.752 15.9811C10.7849 16.0752 9.19179 16.1168 8.22471 16.2108Z" fill="#F72121"/>
<path opacity="0.09" d="M11.3045 16.0156C11.2156 16.1411 11.1168 16.2659 11.021 16.391C10.8781 16.4525 10.7374 16.5062 10.6025 16.5448C10.2965 16.6312 10.0157 16.66 9.76728 16.6276C9.41448 16.5808 9.19488 16.3828 9.09048 16.1452C8.77371 16.1632 8.47851 16.1848 8.22288 16.21C7.68288 16.9012 7.15368 17.5384 6.66768 18.118C7.33728 18.1072 8.22288 17.3872 8.38488 17.1964C8.33088 17.5096 8.29488 17.8984 8.56488 18.082C8.60578 18.1147 8.78122 18.16 8.98068 18.1802C9.1356 18.1959 9.19651 18.3876 9.08179 18.4929C7.14826 20.2665 4.98117 21.509 4.27368 21.0628C4.12608 21.3148 4.07566 21.4948 4.14768 21.5956C4.79211 22.4812 8.08248 20.404 10.3397 17.8696C10.8797 17.2648 11.3621 16.6312 11.7329 16.0084C11.7401 15.9976 11.7437 15.9904 11.7509 15.9796C11.6141 15.994 11.4629 16.0048 11.3045 16.0156Z" fill="black"/>
<path d="M8.23796 15.7401C5.26006 18.4188 3.63747 18.8433 4.0715 19.3143C4.78098 20.0842 9.08379 18.4343 11.2605 15.8538C10.5713 15.8278 9.88212 15.802 9.19295 15.776C8.87463 15.764 8.55628 15.7521 8.23796 15.7401Z" fill="#20ABD1"/>
<path opacity="0.09" d="M11.2585 15.8535C9.08415 18.4347 4.78215 20.0835 4.06935 19.3131C3.93615 19.1691 3.99735 19.0287 4.23132 18.8344C5.19972 19.2592 8.59812 17.9344 10.7329 15.832C10.9094 15.8391 11.0822 15.8463 11.2585 15.8535Z" fill="black"/>
<path d="M18.8438 8.67397C18.5121 9.08373 17.7706 9.51297 17.0652 9.57032C16.0523 9.22306 15.1821 8.40127 15.3386 7.72869C15.4793 7.12406 16.1453 6.84188 16.3229 6.77559C16.9184 6.55352 17.7478 6.6238 18.2447 7.20526C18.685 7.72034 18.8591 8.53878 18.8438 8.67397Z" fill="#F7BC23"/>
<path opacity="0.09" d="M18.8438 8.67481C18.7286 8.81881 18.563 8.96641 18.3614 9.09604C18.0158 8.67481 17.4542 8.09884 16.3562 7.70641C16.2518 7.67041 16.565 7.08721 16.9898 6.65881C17.4398 6.65881 17.9114 6.82441 18.2426 7.20601C18.6854 7.72084 18.8582 8.53801 18.8438 8.67481Z" fill="black"/>
<path d="M19.2618 9.30402C18.9008 9.34699 18.6391 8.06545 16.6918 7.36997C16.5295 7.31201 17.3924 5.91088 18.1063 5.86157C20.4617 6.9049 19.7126 9.25035 19.2618 9.30402Z" fill="#FFD731"/>
<path d="M14.0453 4.18625C15.9714 3.151 17.5599 4.45774 17.9523 5.31134C18.0727 5.57332 18.108 5.86152 18.108 5.86152C17.5662 6.26193 16.2685 7.84132 17.0653 9.57031C17.3201 10.2314 18.0095 12.9142 16.6873 15.0894C14.4952 18.2612 10.2426 16.7063 9.22852 16.6557C11.827 13.2091 10.3882 13.2597 11.5772 9.66427C12.0178 8.33154 12.1135 5.22457 14.0453 4.18625Z" fill="#F72121"/>
<path d="M17.0659 9.5698C16.4526 8.24106 17.0784 6.99838 17.6468 6.3152C17.5454 4.7985 15.6724 4.34558 14.9281 5.32396C14.1721 6.3179 14.7132 8.74135 17.0659 9.5698Z" fill="#F4F4F4"/>
<path d="M16.2032 6.45709C16.4383 6.45709 16.629 6.26645 16.629 6.03128C16.629 5.79611 16.4383 5.60547 16.2032 5.60547C15.968 5.60547 15.7773 5.79611 15.7773 6.03128C15.7773 6.26645 15.968 6.45709 16.2032 6.45709Z" fill="#1D1E1E"/>
<path opacity="0.09" d="M18.107 5.86091C18.107 5.86091 18.071 5.57291 17.9522 5.31011C17.6318 4.61531 16.5158 3.61451 15.0686 3.83771C16.1126 3.99611 16.8866 4.74851 17.1422 5.31011C17.268 5.59048 17.2041 5.91432 16.9928 6.13746C16.3963 6.76757 15.5847 8.11608 16.2566 9.56891C16.4405 10.053 16.8574 11.6153 16.5515 13.2693C16.3456 14.3824 15.5733 15.3362 14.5057 15.7126C14.4592 15.729 14.4125 15.7446 14.3656 15.7595C14.0408 15.8626 13.7673 15.5001 13.9552 15.2159C14.5103 14.3763 14.9488 13.3843 15.158 12.266C15.2364 11.8469 14.9995 11.4305 14.6037 11.2721L11.7062 10.1125C11.6198 10.1017 11.5262 10.1053 11.4326 10.1233C10.571 13.057 11.56 13.3399 9.66693 16.0514C9.5337 16.2416 9.39125 16.4399 9.22852 16.6561C10.2437 16.7065 14.4953 18.2617 16.6877 15.0901C17.4013 13.9176 17.5288 12.5918 17.4551 11.5213C17.4552 11.5197 17.4554 11.513 17.4554 11.5094C17.3906 10.5986 17.1818 9.87133 17.0666 9.56896C16.2674 7.84091 17.567 6.26051 18.107 5.86091Z" fill="black"/>
<path d="M11.7071 9.18415C9.78988 8.95119 6.13686 15.9506 6.61263 16.893C7.12121 17.9004 8.73393 16.6105 8.95752 16.3509C8.88791 16.7443 8.84986 17.2665 9.42884 17.3436C11.1024 17.5661 14.8699 14.8861 15.2581 10.6044" fill="#F72121"/>
<path d="M6.61332 16.8923C7.12059 17.9003 8.73274 16.6112 8.95563 16.3495C8.88779 16.7437 8.84904 17.267 9.42731 17.3446C10.9975 17.5546 14.406 15.209 15.1458 11.387C13.7889 13.3901 11.8229 14.5125 10.7565 14.1997C10.2828 14.0608 10.1349 13.7584 10.2027 13.3675C9.84376 13.9854 7.89675 14.4391 7.86044 13.2996C6.98488 14.9151 6.40337 16.482 6.61332 16.8923Z" fill="#63E763"/>
<path d="M6.61284 16.8923C7.1201 17.9003 8.73225 16.6112 8.95515 16.3496C8.88731 16.7437 8.84855 17.2671 9.42683 17.3446C10.8807 17.5385 13.9144 15.5386 14.9418 12.2045C13.614 14.6114 11.5527 15.9428 10.3379 15.7812C9.7596 15.7037 9.53671 15.222 9.60455 14.8279C9.17337 15.2975 7.09375 16.0162 7.45935 14.0783C6.81638 15.3932 6.43838 16.5499 6.61284 16.8923Z" fill="#30C3E5"/>
<path opacity="0.09" d="M13.3823 15.0615C12.0683 16.6275 10.3979 17.4735 9.42951 17.3439C8.84991 17.2683 8.88594 16.7427 8.95791 16.3503C8.73471 16.6095 7.12191 17.9019 6.61074 16.8939C6.21111 16.1019 8.72034 11.0475 10.6679 9.57874C8.97951 11.6235 7.31274 15.2055 7.64391 15.8607C7.99249 16.5529 8.86228 16.1603 9.44534 15.7624C9.63851 15.6306 9.91675 15.7146 9.98306 15.9388C10.0384 16.126 10.1736 16.2732 10.4591 16.3107C11.1863 16.4079 12.3131 15.9544 13.3823 15.0615Z" fill="black"/>
</svg>
