<svg width="24" height="25" viewBox="0 0 24 25" fill="none" xmlns="http://www.w3.org/2000/svg">
<rect y="0.804565" width="24" height="24" rx="4" fill="#FFF1E6"/>
<g clip-path="url(#clip0_157_8748)">
<path d="M4.47656 10.6952V5.77332C4.47656 5.71737 4.45434 5.66372 4.41478 5.62416C4.37522 5.5846 4.32157 5.56238 4.26562 5.56238C4.20968 5.56238 4.15603 5.5846 4.11647 5.62416C4.07691 5.66372 4.05469 5.71737 4.05469 5.77332V10.6952C4.05469 10.7511 4.07691 10.8048 4.11647 10.8443C4.15603 10.8839 4.20968 10.9061 4.26562 10.9061C4.32157 10.9061 4.37522 10.8839 4.41478 10.8443C4.45434 10.8048 4.47656 10.7511 4.47656 10.6952Z" fill="#212121"/>
<path d="M19.7344 5.56238C19.6784 5.56238 19.6248 5.5846 19.5852 5.62416C19.5457 5.66372 19.5234 5.71737 19.5234 5.77332V10.6952C19.5234 10.7511 19.5457 10.8048 19.5852 10.8443C19.6248 10.8839 19.6784 10.9061 19.7344 10.9061C19.7903 10.9061 19.844 10.8839 19.8835 10.8443C19.9231 10.8048 19.9453 10.7511 19.9453 10.6952V5.77332C19.9453 5.71737 19.9231 5.66372 19.8835 5.62416C19.844 5.5846 19.7903 5.56238 19.7344 5.56238Z" fill="#212121"/>
<path d="M12.0028 5.35144C7.9018 5.35144 4.72142 9.17841 4.75813 13.1561L4.76319 14.7128C4.76914 16.5398 5.49908 18.2899 6.79305 19.5797C8.08702 20.8694 9.8395 21.5936 11.6665 21.5936H12.3392C14.1662 21.5936 15.9187 20.8694 17.2126 19.5797C18.5066 18.2899 19.2365 16.5398 19.2425 14.7128L19.2476 13.1561C19.2847 9.17841 16.1039 5.35144 12.0028 5.35144Z" fill="#FFC107"/>
<path d="M20.689 12.7631C20.6516 11.6496 20.6258 10.8809 20.0357 10.293C19.4999 9.75861 18.7882 9.66144 18.4385 9.64062C18.9708 10.736 19.2458 11.9384 19.2426 13.1562L19.2375 14.7131C19.2361 15.0946 19.2031 15.4754 19.1391 15.8515C19.5482 15.7604 19.9211 15.5499 20.2106 15.2468C20.7527 14.6563 20.7274 13.9044 20.689 12.7631Z" fill="#FFA000"/>
<path d="M4.75733 14.713L4.75227 13.1561C4.74905 11.9383 5.02407 10.7358 5.55636 9.6405C5.20662 9.66132 4.49492 9.75891 3.95914 10.2929C3.36852 10.8808 3.3432 11.6495 3.3058 12.7629C3.26741 13.9043 3.24209 14.6562 3.78477 15.2471C4.07423 15.5502 4.44709 15.7606 4.85619 15.8518C4.79202 15.4755 4.75895 15.0947 4.75733 14.713Z" fill="#FFA000"/>
<path d="M11.9997 20.117C15.442 20.117 17.8919 17.602 17.5292 14.2108C17.4651 13.5901 17.1736 13.0151 16.7109 12.5964C16.2483 12.1777 15.6471 11.9449 15.0231 11.9429C13.5114 11.9472 13.5114 12.7867 11.9997 12.7867C10.4879 12.7867 10.4879 11.9472 8.97623 11.9429C8.35224 11.9449 7.75105 12.1777 7.28838 12.5964C6.82571 13.0151 6.53427 13.5901 6.47015 14.2108C6.10748 17.602 8.5573 20.117 11.9997 20.117Z" fill="#424242"/>
<path d="M13.2975 16.1927C13.1772 16.077 13.0165 16.0129 12.8495 16.0138C12.6826 16.0147 12.5226 16.0807 12.4036 16.1977C12.3564 16.2583 12.2961 16.3074 12.2271 16.3412C12.1582 16.3749 12.0824 16.3925 12.0056 16.3926C11.9289 16.3927 11.8531 16.3753 11.784 16.3417C11.715 16.3081 11.6545 16.2592 11.6072 16.1987C11.4883 16.0845 11.3295 16.0213 11.1646 16.0224C10.9998 16.0235 10.8418 16.0889 10.7245 16.2047C10.6071 16.3205 10.5396 16.4776 10.5363 16.6424C10.5329 16.8073 10.5941 16.9669 10.7067 17.0873C10.874 17.2641 11.0752 17.4056 11.2982 17.5033C11.5212 17.601 11.7615 17.653 12.0049 17.6562C12.2485 17.6531 12.4889 17.6011 12.712 17.5034C12.9352 17.4057 13.1364 17.2642 13.3039 17.0873C13.4206 16.9673 13.4854 16.8061 13.4842 16.6387C13.483 16.4713 13.416 16.311 13.2975 16.1927Z" fill="white"/>
<path d="M14.3906 13.5559C14.223 13.5565 14.0623 13.6233 13.9438 13.7419C13.8252 13.8604 13.7584 14.0211 13.7578 14.1887V15.1731C13.7584 15.3408 13.8252 15.5014 13.9438 15.6199C14.0623 15.7385 14.223 15.8054 14.3906 15.8059C14.4754 15.8047 14.5592 15.7868 14.637 15.7531C14.7148 15.7193 14.7852 15.6705 14.844 15.6094C14.9029 15.5484 14.949 15.4762 14.9798 15.3972C15.0106 15.3182 15.0254 15.2338 15.0234 15.149V14.2128C15.0254 14.128 15.0106 14.0436 14.9798 13.9646C14.949 13.8856 14.9029 13.8134 14.844 13.7524C14.7852 13.6913 14.7148 13.6425 14.637 13.6088C14.5592 13.575 14.4754 13.5571 14.3906 13.5559Z" fill="white"/>
<path d="M9.60955 13.5559C9.52475 13.5571 9.44101 13.575 9.36319 13.6088C9.28537 13.6425 9.21501 13.6913 9.15616 13.7524C9.09732 13.8134 9.05117 13.8856 9.02037 13.9646C8.98957 14.0436 8.97474 14.128 8.97674 14.2128V15.149C8.97474 15.2338 8.98957 15.3182 9.02037 15.3972C9.05117 15.4762 9.09732 15.5484 9.15616 15.6094C9.21501 15.6705 9.28537 15.7193 9.36319 15.7531C9.44101 15.7868 9.52475 15.8047 9.60955 15.8059C9.77721 15.8054 9.93785 15.7385 10.0564 15.6199C10.175 15.5014 10.2418 15.3408 10.2424 15.1731V14.1887C10.2418 14.0211 10.175 13.8604 10.0564 13.7419C9.93785 13.6233 9.77721 13.5565 9.60955 13.5559Z" fill="white"/>
<path d="M4.26562 6.12488C4.84811 6.12488 5.32031 5.65268 5.32031 5.07019C5.32031 4.4877 4.84811 4.0155 4.26562 4.0155C3.68314 4.0155 3.21094 4.4877 3.21094 5.07019C3.21094 5.65268 3.68314 6.12488 4.26562 6.12488Z" fill="#424242"/>
<path d="M19.7344 6.12488C20.3169 6.12488 20.7891 5.65268 20.7891 5.07019C20.7891 4.4877 20.3169 4.0155 19.7344 4.0155C19.1519 4.0155 18.6797 4.4877 18.6797 5.07019C18.6797 5.65268 19.1519 6.12488 19.7344 6.12488Z" fill="#424242"/>
<path d="M12.0029 5.35144C10.0285 5.35144 8.2689 6.24005 6.97754 7.60397C7.45022 8.47292 8.03935 9.27325 8.7286 9.98278C8.88554 10.142 9.07263 10.2684 9.27895 10.3545C9.48527 10.4406 9.70668 10.4847 9.93024 10.4843H14.0705C14.2941 10.4847 14.5155 10.4406 14.7218 10.3545C14.9281 10.2684 15.1152 10.142 15.2722 9.98278C15.9624 9.27223 16.5521 8.47059 17.0251 7.60017C15.734 6.23822 13.9757 5.35144 12.0029 5.35144Z" fill="#424242"/>
<path d="M12 9.078C12.466 9.078 12.8438 8.70024 12.8438 8.23425C12.8438 7.76826 12.466 7.3905 12 7.3905C11.534 7.3905 11.1562 7.76826 11.1562 8.23425C11.1562 8.70024 11.534 9.078 12 9.078Z" fill="white"/>
</g>
<defs>
<clipPath id="clip0_157_8748">
<rect width="18" height="18" fill="white" transform="translate(3 3.80457)"/>
</clipPath>
</defs>
</svg>
