<svg width="65" height="40" viewBox="0 0 65 40" fill="none" xmlns="http://www.w3.org/2000/svg">
<g clip-path="url(#clip0_69_3593)">
<path d="M43.4028 32.326C43.2931 31.8604 43.1231 31.4211 42.9078 31.0079L42.7323 30.7008L42.7063 30.6567L33.7704 15.1128L33.6826 14.9627L28.4009 5.76664L27.8058 4.73369L27.7702 4.67171L26.8296 3.03275L26.6719 2.76419L26.6582 2.74215C26.4004 2.3207 26.0891 1.93369 25.7354 1.59488C24.7084 0.606 23.3125 0 21.7809 0C20.2493 0 18.8535 0.601868 17.8251 1.59075C17.4974 1.90752 17.2081 2.25873 16.9585 2.64574L16.7008 3.09473L9.89157 14.9407L9.88746 14.9489L9.77777 15.1376L1.8689 28.8979C1.82502 28.9682 1.78114 29.0384 1.74138 29.1128L0.896741 30.5892L0.878916 30.6195L0.691066 30.9404L0.673241 30.9707C0.449742 31.3922 0.275604 31.8453 0.161797 32.3246C0.0562177 32.7598 0 33.2171 0 33.6826C0 34.6673 0.245438 35.5997 0.682839 36.4123C0.73083 36.5005 0.778821 36.5831 0.826812 36.6671C1.56176 37.8805 2.73547 38.7991 4.12172 39.2041C4.62905 39.3583 5.17203 39.4368 5.72735 39.4368H37.8359C38.3912 39.4368 38.9342 39.3583 39.4415 39.2082C40.7976 38.8088 41.9494 37.9204 42.6843 36.7415C42.7323 36.663 42.7803 36.5831 42.8242 36.5046C42.8543 36.4523 42.8859 36.3986 42.9119 36.3462C43.3274 35.5502 43.5646 34.6412 43.5646 33.6826C43.5646 33.2171 43.5084 32.7598 43.4028 32.3246V32.326ZM8.07752 32.326L9.68864 29.526L15.9329 18.651L16.0207 18.5009L20.1739 11.2744L21.7796 8.48262L23.3852 11.2744L24.308 12.8789L27.5426 18.5009L27.6303 18.6552L33.8746 29.526L35.4857 32.326H8.07889H8.07752Z" fill="#006AD3"/>
<path opacity="0.8" d="M23.9516 4.7172C24.3232 4.03131 25.0458 3.5658 25.8767 3.5658C26.3977 3.5658 26.879 3.75035 27.2547 4.06299C27.4645 4.22964 27.64 4.43623 27.7758 4.6745L27.8114 4.73648L28.4065 5.76943L33.6882 14.9655L33.776 15.1156C34.0475 15.6211 34.201 16.1968 34.201 16.8124C34.201 18.7723 32.6173 20.3685 30.6607 20.3685C29.4088 20.3685 28.3064 19.7129 27.6757 18.7241L27.6537 18.6841L27.6359 18.658L27.5482 18.5037L24.3136 12.8817L23.3908 11.2771L21.7852 8.48541L23.9516 4.71857V4.7172Z" fill="url(#paint0_linear_69_3593)"/>
<path opacity="0.8" d="M1.87256 28.898L9.78006 15.139L9.88975 14.9503L9.89387 14.9421C10.5191 13.9312 11.6352 13.2535 12.9091 13.2535C14.8657 13.2535 16.4494 14.8443 16.4494 16.8097C16.4494 17.4212 16.2958 18.001 16.0243 18.5023L15.9366 18.6524L9.69231 29.5274L8.08119 32.3274H3.68935C2.48136 32.3274 1.50098 31.3468 1.50098 30.1293C1.50098 30.0067 1.5092 29.8869 1.53114 29.7684C1.56679 29.5357 1.64495 29.3153 1.74504 29.1128C1.78481 29.0385 1.82868 28.9682 1.87256 28.898Z" fill="url(#paint1_linear_69_3593)"/>
<path opacity="0.8" d="M21.7591 39.4382C19.8024 39.4382 18.2188 37.8474 18.2188 35.882C18.2188 33.9167 19.8024 32.3259 21.7591 32.3259H35.4913L37.6097 36.0101C37.6536 36.0804 37.6975 36.1547 37.7373 36.2305C37.8949 36.5335 37.9827 36.8764 37.9827 37.2414C37.9827 38.1821 37.3958 38.9823 36.5731 39.2935C36.3318 39.3858 36.0699 39.4382 35.7943 39.4382H21.7591Z" fill="url(#paint2_linear_69_3593)"/>
<path d="M41.6176 8.484L51.8314 26.2426C52.4566 27.2576 53.5687 27.9352 54.8425 27.9352H54.8466C56.8032 27.9352 58.3869 26.339 58.3869 24.3791C58.3869 23.7731 58.2375 23.2015 57.9715 22.7043L57.8714 22.528L46.5154 2.7697C46.2535 2.33861 45.9381 1.94746 45.5789 1.60039V1.59626C44.5505 0.607377 43.1506 0 41.6135 0C40.0764 0 38.686 0.606 37.6577 1.59626C37.3121 1.92543 37.0105 2.30418 36.7568 2.71323L18.6643 34.1894C18.3928 34.6907 18.2393 35.2706 18.2393 35.8821C18.2393 37.8475 19.823 39.4382 21.7796 39.4382C22.3788 39.4382 22.9437 39.2881 23.4387 39.0292C23.9995 38.7262 24.4712 38.2772 24.8044 37.7373L41.6176 8.484Z" fill="#FF7500"/>
<path d="M61.4593 39.4382C59.5026 39.4382 57.9189 37.8474 57.9189 35.882C57.9189 33.9167 59.5026 32.3259 61.4593 32.3259C63.4159 32.3259 64.9955 33.9125 64.9996 35.8779V39.4382H61.4593Z" fill="#FF7500"/>
<path opacity="0.8" d="M43.7836 4.7172C44.1552 4.03131 44.8778 3.5658 45.7087 3.5658C46.2298 3.5658 46.7111 3.75035 47.0868 4.06299C47.2965 4.22964 47.4721 4.43623 47.6078 4.6745L47.6435 4.73648L48.2385 5.76943L53.5203 14.9655L53.608 15.1156C53.8795 15.6211 54.0331 16.1968 54.0331 16.8124C54.0331 18.7723 52.4494 20.3685 50.4927 20.3685C49.2409 20.3685 48.1384 19.7129 47.5077 18.7241L47.4858 18.6841L47.4679 18.658L47.3802 18.5037L44.1456 12.8817L43.2228 11.2771L41.6172 8.48541L43.7836 4.71857V4.7172Z" fill="url(#paint3_linear_69_3593)"/>
<path opacity="0.8" d="M35.79 18.6235L31.7012 25.7385L34.9248 31.3495L40.7179 27.1957L35.79 18.6235Z" fill="url(#paint4_linear_69_3593)"/>
</g>
<defs>
<linearGradient id="paint0_linear_69_3593" x1="23.6088" y1="4.53953" x2="32.4898" y2="19.8537" gradientUnits="userSpaceOnUse">
<stop stop-opacity="0.8"/>
<stop offset="0.8" stop-opacity="0"/>
</linearGradient>
<linearGradient id="paint1_linear_69_3593" x1="3.76751" y1="32.713" x2="14.7535" y2="13.771" gradientUnits="userSpaceOnUse">
<stop stop-opacity="0.8"/>
<stop offset="0.8" stop-opacity="0"/>
</linearGradient>
<linearGradient id="paint2_linear_69_3593" x1="37.9813" y1="35.882" x2="18.2187" y2="35.882" gradientUnits="userSpaceOnUse">
<stop stop-opacity="0.8"/>
<stop offset="0.8" stop-opacity="0"/>
</linearGradient>
<linearGradient id="paint3_linear_69_3593" x1="43.4422" y1="4.53953" x2="52.3232" y2="19.8537" gradientUnits="userSpaceOnUse">
<stop stop-opacity="0.8"/>
<stop offset="0.8" stop-opacity="0"/>
</linearGradient>
<linearGradient id="paint4_linear_69_3593" x1="32.7227" y1="20.403" x2="38.0287" y2="29.5497" gradientUnits="userSpaceOnUse">
<stop stop-opacity="0.8"/>
<stop offset="0.8" stop-opacity="0"/>
</linearGradient>
<clipPath id="clip0_69_3593">
<rect width="65" height="39.4382" fill="white"/>
</clipPath>
</defs>
</svg>
