<svg width="155" height="33" viewBox="0 0 155 33" fill="none" xmlns="http://www.w3.org/2000/svg">
<g clip-path="url(#clip0_69_3591)">
<path d="M36.0577 26.9162C35.9666 26.5344 35.8253 26.1741 35.6465 25.8352L35.5007 25.5833L35.479 25.5472L28.0554 12.7991L27.9825 12.676L23.5946 5.13396L23.1002 4.2868L23.0706 4.23597L22.2892 2.89181L22.1582 2.67155L22.1468 2.65347C21.9326 2.30783 21.674 1.99043 21.3801 1.71256C20.5269 0.901543 19.3673 0.404541 18.0949 0.404541C16.8225 0.404541 15.6629 0.898154 14.8086 1.70917C14.5363 1.96897 14.296 2.257 14.0886 2.57441L13.8745 2.94264L8.21761 12.6579L8.2142 12.6647L8.12307 12.8194L1.55262 24.1047C1.51617 24.1624 1.47972 24.22 1.44668 24.281L0.744985 25.4918L0.730176 25.5167L0.574117 25.7799L0.559308 25.8047C0.373631 26.1504 0.228963 26.522 0.134416 26.9151C0.0467039 27.272 0 27.647 0 28.0288C0 28.8364 0.203903 29.6011 0.567282 30.2676C0.607151 30.3399 0.64702 30.4076 0.68689 30.4765C1.29746 31.4717 2.27255 32.2251 3.4242 32.5572C3.84567 32.6837 4.29676 32.7481 4.75811 32.7481H31.4329C31.8942 32.7481 32.3453 32.6837 32.7668 32.5606C33.8934 32.233 34.8502 31.5044 35.4608 30.5375C35.5007 30.4731 35.5406 30.4076 35.577 30.3433C35.6021 30.3003 35.6283 30.2563 35.6499 30.2134C35.9951 29.5605 36.1921 28.815 36.1921 28.0288C36.1921 27.647 36.1454 27.272 36.0577 26.9151V26.9162ZM6.71056 26.9162L8.04902 24.6198L13.2366 15.7009L13.3095 15.5778L16.7599 9.65103L18.0938 7.36144L19.4277 9.65103L20.1943 10.967L22.8815 15.5778L22.9544 15.7043L28.142 24.6198L29.4804 26.9162H6.7117H6.71056Z" fill="#006AD3"/>
<path opacity="0.8" d="M19.8984 4.27328C20.2071 3.71077 20.8075 3.32898 21.4978 3.32898C21.9306 3.32898 22.3305 3.48034 22.6426 3.73675C22.8169 3.87342 22.9627 4.04285 23.0754 4.23827L23.1051 4.2891L23.5994 5.13626L27.9873 12.6783L28.0602 12.8014C28.2858 13.2159 28.4134 13.6881 28.4134 14.193C28.4134 15.8003 27.0977 17.1095 25.4722 17.1095C24.4321 17.1095 23.5163 16.5718 22.9923 15.7608L22.9741 15.728L22.9593 15.7066L22.8864 15.5801L20.1992 10.9693L19.4325 9.65333L18.0986 7.36373L19.8984 4.27441V4.27328Z" fill="url(#paint0_linear_69_3591)"/>
<path opacity="0.8" d="M1.55675 24.1047L8.12606 12.8205L8.21718 12.6658L8.2206 12.659C8.74004 11.8299 9.66729 11.2742 10.7255 11.2742C12.3511 11.2742 13.6667 12.5788 13.6667 14.1907C13.6667 14.6922 13.5392 15.1677 13.3136 15.5789L13.2407 15.702L8.05315 24.6209L6.71468 26.9173H3.06608C2.06252 26.9173 1.24805 26.1131 1.24805 25.1145C1.24805 25.014 1.25488 24.9157 1.27311 24.8186C1.30272 24.6277 1.36765 24.447 1.45081 24.2809C1.48384 24.2199 1.5203 24.1623 1.55675 24.1047Z" fill="url(#paint1_linear_69_3591)"/>
<path opacity="0.8" d="M18.077 32.7493C16.4514 32.7493 15.1357 31.4446 15.1357 29.8328C15.1357 28.2209 16.4514 26.9163 18.077 26.9163H29.4852L31.2452 29.9378C31.2816 29.9954 31.3181 30.0564 31.3511 30.1185C31.4821 30.367 31.555 30.6483 31.555 30.9476C31.555 31.7191 31.0675 32.3754 30.384 32.6306C30.1835 32.7063 29.966 32.7493 29.737 32.7493H18.077Z" fill="url(#paint2_linear_69_3591)"/>
<path d="M34.5743 7.36257L43.0597 21.927C43.5791 22.7595 44.5029 23.3152 45.5612 23.3152H45.5646C47.1901 23.3152 48.5058 22.006 48.5058 20.3987C48.5058 19.9017 48.3816 19.4329 48.1606 19.0252L48.0775 18.8806L38.6433 2.67607C38.4257 2.32252 38.1637 2.00172 37.8653 1.71708V1.71369C37.0109 0.902672 35.8479 0.404541 34.5709 0.404541C33.294 0.404541 32.1389 0.901543 31.2846 1.71369C30.9975 1.98365 30.7469 2.29428 30.5362 2.62975L15.5055 28.4445C15.2799 28.8556 15.1523 29.3312 15.1523 29.8327C15.1523 31.4446 16.468 32.7492 18.0936 32.7492C18.5913 32.7492 19.0607 32.6261 19.4719 32.4137C19.9378 32.1652 20.3296 31.797 20.6065 31.3542L34.5743 7.36257Z" fill="#FF7500"/>
<path d="M51.0594 32.7493C49.4338 32.7493 48.1182 31.4446 48.1182 29.8328C48.1182 28.2209 49.4338 26.9163 51.0594 26.9163C52.6849 26.9163 53.9972 28.2175 54.0006 29.8294V32.7493H51.0594Z" fill="#FF7500"/>
<path opacity="0.8" d="M36.374 4.27328C36.6827 3.71077 37.283 3.32898 37.9734 3.32898C38.4062 3.32898 38.8061 3.48034 39.1182 3.73675C39.2925 3.87342 39.4383 4.04285 39.551 4.23827L39.5807 4.2891L40.075 5.13626L44.4629 12.6783L44.5358 12.8014C44.7614 13.2159 44.889 13.6881 44.889 14.193C44.889 15.8003 43.5733 17.1095 41.9477 17.1095C40.9077 17.1095 39.9919 16.5718 39.4679 15.7608L39.4497 15.728L39.4348 15.7066L39.3619 15.5801L36.6748 10.9693L35.9081 9.65333L34.5742 7.36373L36.374 4.27441V4.27328Z" fill="url(#paint3_linear_69_3591)"/>
<path opacity="0.8" d="M29.7328 15.6783L26.3359 21.5136L29.014 26.1154L33.8268 22.7087L29.7328 15.6783Z" fill="url(#paint4_linear_69_3591)"/>
<path d="M137.573 24.2131V32.373H155V24.2131H137.573ZM142.342 29.2543C142.342 30.4641 141.561 31.1 140.555 31.1C139.549 31.1 138.799 30.4878 138.799 29.2859V28.9674H139.682V29.2622C139.682 29.9987 140.053 30.2619 140.564 30.2619C141.074 30.2619 141.461 29.9829 141.461 29.2306V25.5776H142.343V29.2532L142.342 29.2543ZM145.625 31.1C144.109 31.1 143.443 30.263 143.297 29.3243H144.179C144.341 29.9524 144.759 30.2788 145.618 30.2788C146.345 30.2788 146.763 29.9919 146.763 29.4881C146.763 28.9844 146.322 28.8985 145.316 28.6737C144.263 28.441 143.444 28.1462 143.444 27.1308C143.444 26.0532 144.395 25.4873 145.432 25.4873C146.793 25.4873 147.42 26.1921 147.575 27.054H146.693C146.539 26.6033 146.167 26.3096 145.44 26.3096C144.713 26.3096 144.317 26.6349 144.317 27.1082C144.317 27.4956 144.627 27.6199 145.524 27.813C146.893 28.1157 147.644 28.4026 147.644 29.4486C147.644 30.6358 146.591 31.1 145.625 31.1ZM151.174 30.263C151.941 30.263 152.551 29.8518 152.838 29.2159H153.774C153.434 30.3409 152.435 31.1 151.182 31.1C149.573 31.1 148.39 29.8982 148.39 28.2931C148.39 26.688 149.573 25.4861 151.182 25.4861C152.435 25.4861 153.434 26.2452 153.774 27.3702H152.838C152.551 26.7343 151.941 26.3231 151.174 26.3231C150.068 26.3231 149.271 27.1613 149.271 28.2931C149.271 29.4249 150.068 30.2619 151.174 30.2619V30.263Z" fill="#272523"/>
<path d="M67.5923 19.5074V22.7232H74.4357V25.8261H67.5923V29.2701H75.051V32.3719H64.3301V16.4045H75.051V19.5063H67.5923V19.5074Z" fill="#272523"/>
<path d="M92.4183 16.4045V32.3719H89.1561V20.9216L84.7084 27.6503H84.412L79.9869 20.9216V32.3719H76.7246V16.4045H80.4658L84.5709 22.5403L88.6535 16.4045H92.4172H92.4183Z" fill="#272523"/>
<path d="M107.105 32.373L105.893 31.1373C104.702 31.9087 103.225 32.3719 101.526 32.3719C98.6157 32.3719 96.0566 31.0266 96.0566 27.961C96.0566 25.9763 97.1373 24.918 99.1228 23.7489C98.0422 22.3595 97.6895 21.4333 97.6895 20.4404C97.6895 17.6617 100.005 16.4045 102.254 16.4045C104.504 16.4045 106.709 17.7939 106.709 20.3738C106.709 22.4465 105.275 23.6156 103.599 24.5859C104.172 25.2252 104.878 25.9538 105.737 26.8348C105.958 26.305 106.157 25.7098 106.288 25.0038H109.464C109.332 26.5038 108.802 27.9372 107.964 29.1278C108.824 30.01 110.038 31.2672 111.096 32.3707H107.103L107.105 32.373ZM103.842 28.9979C102.717 27.8288 101.791 26.8371 101.019 25.9989C99.7403 26.6823 99.2332 27.124 99.2332 27.8514C99.2332 28.8443 100.093 29.5051 101.726 29.5051C102.454 29.5051 103.182 29.3514 103.843 28.9979H103.842ZM100.887 20.6392C100.887 21.1238 101.063 21.6095 101.637 22.3595C102.982 21.6095 103.512 21.169 103.512 20.419C103.512 19.7582 103.071 19.2725 102.233 19.2725C101.438 19.2725 100.887 19.6915 100.887 20.6404V20.6392Z" fill="#272523"/>
<path d="M124.669 28.6082H118.213L116.845 32.3719H113.4L119.376 16.4045H123.505L129.481 32.3719H126.013L124.668 28.6082H124.669ZM123.529 25.5065L121.429 19.713L119.331 25.5065H123.529Z" fill="#272523"/>
<path d="M131.041 16.4045H134.303V32.3719H131.041V16.4045Z" fill="#272523"/>
</g>
<defs>
<linearGradient id="paint0_linear_69_3591" x1="19.6137" y1="4.12757" x2="26.8504" y2="16.7682" gradientUnits="userSpaceOnUse">
<stop stop-opacity="0.8"/>
<stop offset="0.8" stop-opacity="0"/>
</linearGradient>
<linearGradient id="paint1_linear_69_3591" x1="3.13101" y1="27.2336" x2="12.083" y2="11.5984" gradientUnits="userSpaceOnUse">
<stop stop-opacity="0.8"/>
<stop offset="0.8" stop-opacity="0"/>
</linearGradient>
<linearGradient id="paint2_linear_69_3591" x1="31.5539" y1="29.8328" x2="15.1357" y2="29.8328" gradientUnits="userSpaceOnUse">
<stop stop-opacity="0.8"/>
<stop offset="0.8" stop-opacity="0"/>
</linearGradient>
<linearGradient id="paint3_linear_69_3591" x1="36.0904" y1="4.12757" x2="43.3271" y2="16.7682" gradientUnits="userSpaceOnUse">
<stop stop-opacity="0.8"/>
<stop offset="0.8" stop-opacity="0"/>
</linearGradient>
<linearGradient id="paint4_linear_69_3591" x1="27.1846" y1="17.1377" x2="31.5082" y2="24.6876" gradientUnits="userSpaceOnUse">
<stop stop-opacity="0.8"/>
<stop offset="0.8" stop-opacity="0"/>
</linearGradient>
<clipPath id="clip0_69_3591">
<rect width="155" height="32.4" fill="white" transform="translate(0 0.404541)"/>
</clipPath>
</defs>
</svg>
