<svg width="65" height="58" viewBox="0 0 65 58" fill="none" xmlns="http://www.w3.org/2000/svg">
<g clip-path="url(#clip0_69_3592)">
<path d="M43.4028 32.6192C43.2931 32.1558 43.1231 31.7184 42.9078 31.3071L42.7323 31.0013L42.7063 30.9575L33.7704 15.4833L33.6826 15.3338L28.4009 6.17901L27.8058 5.15069L27.7702 5.08899L26.8296 3.45739L26.6719 3.19002L26.6582 3.16808C26.4004 2.74853 26.0891 2.36325 25.7354 2.02596C24.7084 1.04151 23.3125 0.438232 21.7809 0.438232C20.2493 0.438232 18.8535 1.0374 17.8251 2.02185C17.4974 2.3372 17.2081 2.68683 16.9585 3.07211L16.7008 3.51908L9.89157 15.3119L9.88746 15.3201L9.77777 15.5079L1.8689 29.2066C1.82502 29.2765 1.78114 29.3464 1.74138 29.4205L0.896741 30.8903L0.878916 30.9204L0.691066 31.2399L0.673241 31.2701C0.449742 31.6896 0.275604 32.1407 0.161797 32.6179C0.0562177 33.0511 0 33.5063 0 33.9697C0 34.9501 0.245438 35.8783 0.682839 36.6873C0.73083 36.775 0.778821 36.8573 0.826812 36.9409C1.56176 38.1489 2.73547 39.0634 4.12172 39.4665C4.62905 39.62 5.17203 39.6982 5.72735 39.6982H37.8359C38.3912 39.6982 38.9342 39.62 39.4415 39.4706C40.7976 39.073 41.9494 38.1886 42.6843 37.015C42.7323 36.9368 42.7803 36.8573 42.8242 36.7791C42.8543 36.727 42.8859 36.6735 42.9119 36.6214C43.3274 35.829 43.5646 34.924 43.5646 33.9697C43.5646 33.5063 43.5084 33.0511 43.4028 32.6179V32.6192ZM8.07752 32.6192L9.68864 29.8318L15.9329 19.0056L16.0207 18.8562L20.1739 11.662L21.7796 8.88281L23.3852 11.662L24.308 13.2593L27.5426 18.8562L27.6303 19.0097L33.8746 29.8318L35.4857 32.6192H8.07889H8.07752Z" fill="#006AD3"/>
<path opacity="0.8" d="M23.9516 5.13427C24.3232 4.45147 25.0458 3.98804 25.8767 3.98804C26.3977 3.98804 26.879 4.17176 27.2547 4.483C27.4645 4.64891 27.64 4.85457 27.7758 5.09177L27.8114 5.15347L28.4065 6.18179L33.6882 15.3366L33.776 15.486C34.0475 15.9892 34.201 16.5624 34.201 17.1752C34.201 19.1263 32.6173 20.7154 30.6607 20.7154C29.4088 20.7154 28.3064 20.0628 27.6757 19.0783L27.6537 19.0386L27.6359 19.0125L27.5482 18.8589L24.3136 13.2621L23.3908 11.6648L21.7852 8.88559L23.9516 5.13564V5.13427Z" fill="url(#paint0_linear_69_3592)"/>
<path opacity="0.8" d="M1.87256 29.2066L9.78006 15.5094L9.88975 15.3215L9.89387 15.3133C10.5191 14.3069 11.6352 13.6323 12.9091 13.6323C14.8657 13.6323 16.4494 15.2159 16.4494 17.1725C16.4494 17.7813 16.2958 18.3585 16.0243 18.8576L15.9366 19.007L9.69231 29.8332L8.08119 32.6206H3.68935C2.48136 32.6206 1.50098 31.6444 1.50098 30.4324C1.50098 30.3103 1.5092 30.191 1.53114 30.0731C1.56679 29.8414 1.64495 29.622 1.74504 29.4205C1.78481 29.3465 1.82868 29.2765 1.87256 29.2066Z" fill="url(#paint1_linear_69_3592)"/>
<path opacity="0.8" d="M21.7591 39.6996C19.8024 39.6996 18.2188 38.116 18.2188 36.1594C18.2188 34.2029 19.8024 32.6193 21.7591 32.6193H35.4913L37.6097 36.2869C37.6536 36.3569 37.6975 36.4309 37.7373 36.5063C37.8949 36.808 37.9827 37.1494 37.9827 37.5127C37.9827 38.4492 37.3958 39.2458 36.5731 39.5556C36.3318 39.6475 36.0699 39.6996 35.7943 39.6996H21.7591Z" fill="url(#paint2_linear_69_3592)"/>
<path d="M41.6176 8.88418L51.8314 26.5631C52.4566 27.5736 53.5687 28.2482 54.8425 28.2482H54.8466C56.8032 28.2482 58.3869 26.6591 58.3869 24.708C58.3869 24.1047 58.2375 23.5357 57.9715 23.0408L57.8714 22.8652L46.5154 3.19551C46.2535 2.76635 45.9381 2.37696 45.5789 2.03145V2.02733C44.5505 1.04289 43.1506 0.438232 41.6135 0.438232C40.0764 0.438232 38.686 1.04151 37.6577 2.02733C37.3121 2.35502 37.0105 2.73208 36.7568 3.13929L18.6643 34.4743C18.3928 34.9734 18.2393 35.5506 18.2393 36.1594C18.2393 38.1159 19.823 39.6996 21.7796 39.6996C22.3788 39.6996 22.9437 39.5501 23.4387 39.2924C23.9995 38.9907 24.4712 38.5437 24.8044 38.0063L41.6176 8.88418Z" fill="#FF7500"/>
<path d="M61.4593 39.6996C59.5026 39.6996 57.9189 38.116 57.9189 36.1594C57.9189 34.2029 59.5026 32.6193 61.4593 32.6193C63.4159 32.6193 64.9955 34.1988 64.9996 36.1553V39.6996H61.4593Z" fill="#FF7500"/>
<path opacity="0.8" d="M43.7836 5.13427C44.1552 4.45147 44.8778 3.98804 45.7087 3.98804C46.2298 3.98804 46.7111 4.17176 47.0868 4.483C47.2965 4.64891 47.4721 4.85457 47.6078 5.09177L47.6435 5.15347L48.2385 6.18179L53.5203 15.3366L53.608 15.486C53.8795 15.9892 54.0331 16.5624 54.0331 17.1752C54.0331 19.1263 52.4494 20.7154 50.4927 20.7154C49.2409 20.7154 48.1384 20.0628 47.5077 19.0783L47.4858 19.0386L47.4679 19.0125L47.3802 18.8589L44.1456 13.2621L43.2228 11.6648L41.6172 8.88559L43.7836 5.13564V5.13427Z" fill="url(#paint3_linear_69_3592)"/>
<path opacity="0.8" d="M35.79 18.9781L31.7012 26.0612L34.9248 31.6471L40.7179 27.5119L35.79 18.9781Z" fill="url(#paint4_linear_69_3592)"/>
<path d="M52.5078 51.5691V57.4045H65.0005V51.5691H52.5078ZM55.9275 55.1737C55.9275 56.0389 55.3667 56.4941 54.6468 56.4941C53.927 56.4941 53.3881 56.0567 53.3881 55.197V54.9694H54.0202V55.1806C54.0202 55.7071 54.2862 55.8963 54.6523 55.8963C55.0184 55.8963 55.2954 55.6961 55.2954 55.1586V52.5467H55.9275V55.1751V55.1737ZM58.2804 56.4941C57.1931 56.4941 56.7173 55.8949 56.6117 55.2244H57.2438C57.3604 55.6741 57.6593 55.9072 58.2749 55.9072C58.796 55.9072 59.0963 55.7016 59.0963 55.341C59.0963 54.9804 58.7795 54.9187 58.0597 54.7583C57.3055 54.5924 56.7173 54.3812 56.7173 53.6545C56.7173 52.884 57.3988 52.4795 58.1419 52.4795C59.1182 52.4795 59.5679 52.9841 59.6776 53.5997H59.0455C58.9345 53.2775 58.6684 53.0677 58.1474 53.0677C57.6264 53.0677 57.3425 53.3008 57.3425 53.6394C57.3425 53.9164 57.5647 54.0055 58.2077 54.144C59.1895 54.3606 59.727 54.5649 59.727 55.3136C59.727 56.1623 58.9728 56.4954 58.279 56.4954L58.2804 56.4941ZM62.2582 55.8949C62.8066 55.8949 63.2454 55.6015 63.4511 55.1463H64.1216C63.8775 55.9511 63.1618 56.4941 62.2636 56.4941C61.1105 56.4941 60.2617 55.6344 60.2617 54.4868C60.2617 53.3392 61.1105 52.4795 62.2636 52.4795C63.1618 52.4795 63.8775 53.0225 64.1216 53.8273H63.4511C63.2454 53.3721 62.808 53.0787 62.2582 53.0787C61.4656 53.0787 60.8938 53.6778 60.8938 54.4882C60.8938 55.2985 61.4656 55.8963 62.2582 55.8963V55.8949Z" fill="#272523"/>
<path d="M2.33921 48.2031V50.5038H7.24386V52.7222H2.33921V55.1847H7.68537V57.4031H0V45.9846H7.68537V48.2031H2.33921Z" fill="#272523"/>
<path d="M20.1356 45.9846V57.4031H17.7963V49.2135L14.607 54.0261H14.3945L11.2216 49.2135V57.4031H8.88379V45.9846H11.5658L14.5097 50.3721L17.4371 45.9846H20.1356Z" fill="#272523"/>
<path d="M30.6663 57.4045L29.797 56.5215C28.9428 57.074 27.8842 57.4045 26.6666 57.4045C24.5797 57.4045 22.7451 56.442 22.7451 54.2496C22.7451 52.8305 23.5198 52.0737 24.9431 51.2373C24.1684 50.2432 23.9147 49.581 23.9147 48.8708C23.9147 46.8841 25.5752 45.9846 27.1877 45.9846C28.8002 45.9846 30.3811 46.9787 30.3811 48.8228C30.3811 50.3049 29.3528 51.1413 28.1516 51.8351C28.563 52.293 29.0689 52.8127 29.6859 53.4434C29.8436 53.065 29.9862 52.6385 30.0808 52.134H32.357C32.2624 53.2062 31.8825 54.2318 31.282 55.0832C31.899 55.7139 32.7683 56.6134 33.5266 57.4017H30.665L30.6663 57.4045ZM28.3271 54.9913C27.5209 54.155 26.8572 53.4461 26.3033 52.847C25.386 53.3364 25.0226 53.6518 25.0226 54.1714C25.0226 54.8817 25.6396 55.3547 26.8092 55.3547C27.3303 55.3547 27.8527 55.245 28.3271 54.9913ZM26.2087 49.0134C26.2087 49.3603 26.3348 49.7071 26.7462 50.2432C27.7101 49.7071 28.0899 49.3918 28.0899 48.8557C28.0899 48.3827 27.7732 48.0358 27.1726 48.0358C26.6036 48.0358 26.2087 48.336 26.2087 49.0134Z" fill="#272523"/>
<path d="M43.2557 54.713H38.628L37.6462 57.4044H35.1768L39.4616 45.986H42.422L46.7069 57.4044H44.221L43.2557 54.713ZM42.4384 52.4946L40.9343 48.3511L39.4301 52.4946H42.4384Z" fill="#272523"/>
<path d="M47.8232 45.9846H50.1624V57.4031H47.8232V45.9846Z" fill="#272523"/>
</g>
<defs>
<linearGradient id="paint0_linear_69_3592" x1="23.6088" y1="4.9574" x2="32.4302" y2="20.2373" gradientUnits="userSpaceOnUse">
<stop stop-opacity="0.8"/>
<stop offset="0.8" stop-opacity="0"/>
</linearGradient>
<linearGradient id="paint1_linear_69_3592" x1="3.76751" y1="33.0045" x2="14.6798" y2="14.1049" gradientUnits="userSpaceOnUse">
<stop stop-opacity="0.8"/>
<stop offset="0.8" stop-opacity="0"/>
</linearGradient>
<linearGradient id="paint2_linear_69_3592" x1="37.9813" y1="36.1594" x2="18.2187" y2="36.1594" gradientUnits="userSpaceOnUse">
<stop stop-opacity="0.8"/>
<stop offset="0.8" stop-opacity="0"/>
</linearGradient>
<linearGradient id="paint3_linear_69_3592" x1="43.4422" y1="4.9574" x2="52.2636" y2="20.2373" gradientUnits="userSpaceOnUse">
<stop stop-opacity="0.8"/>
<stop offset="0.8" stop-opacity="0"/>
</linearGradient>
<linearGradient id="paint4_linear_69_3592" x1="32.7227" y1="20.7496" x2="37.9931" y2="29.8758" gradientUnits="userSpaceOnUse">
<stop stop-opacity="0.8"/>
<stop offset="0.8" stop-opacity="0"/>
</linearGradient>
<clipPath id="clip0_69_3592">
<rect width="65" height="56.9663" fill="white" transform="translate(0 0.438232)"/>
</clipPath>
</defs>
</svg>
