<svg width="20" height="20" viewBox="0 0 20 20" fill="none" xmlns="http://www.w3.org/2000/svg">
<path fill-rule="evenodd" clip-rule="evenodd" d="M8.83563 4.01811C8.42895 2.84347 7.31297 2 6 2H5C4.44772 2 4 1.55228 4 1C4 0.447715 4.44772 0 5 0H6C7.43972 0 8.73732 0.608501 9.64963 1.58235C10.3114 0.626274 11.4159 0 12.6667 0H15.6667C16.9553 0 18 1.04467 18 2.33333C18 3.40951 17.5364 4.3774 16.7979 5.04816C18.7543 6.26009 20 8.42242 20 11C20 15 17 20 12.9999 20C11.9126 20 10.8993 19.6306 9.99993 19.0122C9.10059 19.6306 8.08719 20 6.99991 20C2.99982 20 0 15 0 11C0 7 2.99982 4 6.99991 4C7.67627 4 8.32402 4.08577 8.93353 4.24764C8.89554 4.17342 8.86276 4.09646 8.83563 4.01811ZM10.818 6.44981C11.453 6.16518 12.1868 6 12.9999 6C15.8955 6 18 8.10459 18 11C18 12.5512 17.3995 14.3997 16.3725 15.8375C15.3344 17.2909 14.1164 18 12.9999 18C12.384 18 11.7586 17.7943 11.1331 17.3642L10.5665 16.9747C10.2252 16.74 9.77465 16.74 9.43338 16.9747L8.86682 17.3642C8.24123 17.7943 7.61578 18 6.99991 18C5.88344 18 4.6655 17.2909 3.6274 15.8375C2.60046 14.3998 2 12.5512 2 11C2 8.10452 4.10444 6 6.99991 6C7.81303 6 8.54685 6.16518 9.18185 6.44982L9.5909 6.63317C9.85112 6.74982 10.1488 6.74982 10.409 6.63317L10.818 6.44981ZM14.3333 4H12.9999H11.3333C11.1492 4 11 3.85076 11 3.66667C11 2.74619 11.7462 2 12.6667 2H15.6667C15.8508 2 16 2.14924 16 2.33333C16 3.25381 15.2538 4 14.3333 4ZM6 10.5C6 10.2239 6.22386 10 6.5 10C7.32843 10 8 10.6716 8 11.5V12.5C8 12.7761 7.77614 13 7.5 13C6.67157 13 6 12.3284 6 11.5V10.5ZM14 10.5C14 10.2239 13.7761 10 13.5 10C12.6716 10 12 10.6716 12 11.5V12.5C12 12.7761 12.2239 13 12.5 13C13.3284 13 14 12.3284 14 11.5V10.5Z" fill="#FB1B3C"/>
</svg>
