<svg width="24" height="24" viewBox="0 0 24 24" fill="none" xmlns="http://www.w3.org/2000/svg">
<path fill-rule="evenodd" clip-rule="evenodd" d="M10.8356 6.01811C10.4289 4.84347 9.31297 4 8 4H7C6.44772 4 6 3.55228 6 3C6 2.44772 6.44772 2 7 2H8C9.43972 2 10.7373 2.6085 11.6496 3.58235C12.3114 2.62627 13.4159 2 14.6667 2H17.6667C18.9553 2 20 3.04467 20 4.33333C20 5.40951 19.5364 6.3774 18.7979 7.04816C20.7543 8.26009 22 10.4224 22 13C22 17 19 22 14.9999 22C13.9126 22 12.8993 21.6306 11.9999 21.0122C11.1006 21.6306 10.0872 22 8.99991 22C4.99982 22 2 17 2 13C2 9 4.99982 6 8.99991 6C9.67627 6 10.324 6.08577 10.9335 6.24764C10.8955 6.17342 10.8628 6.09646 10.8356 6.01811ZM12.818 8.44981C13.453 8.16518 14.1868 8 14.9999 8C17.8955 8 20 10.1046 20 13C20 14.5512 19.3995 16.3997 18.3725 17.8375C17.3344 19.2909 16.1164 20 14.9999 20C14.384 20 13.7586 19.7943 13.1331 19.3642L12.5665 18.9747C12.2252 18.74 11.7747 18.74 11.4334 18.9747L10.8668 19.3642C10.2412 19.7943 9.61578 20 8.99991 20C7.88344 20 6.6655 19.2909 5.6274 17.8375C4.60046 16.3998 4 14.5512 4 13C4 10.1045 6.10444 8 8.99991 8C9.81303 8 10.5469 8.16518 11.1819 8.44982L11.5909 8.63317C11.8511 8.74982 12.1488 8.74982 12.409 8.63317L12.818 8.44981ZM16.3333 6H14.9999H13.3333C13.1492 6 13 5.85076 13 5.66667C13 4.74619 13.7462 4 14.6667 4H17.6667C17.8508 4 18 4.14924 18 4.33333C18 5.25381 17.2538 6 16.3333 6ZM8 12.5C8 12.2239 8.22386 12 8.5 12C9.32843 12 10 12.6716 10 13.5V14.5C10 14.7761 9.77614 15 9.5 15C8.67157 15 8 14.3284 8 13.5V12.5ZM16 12.5C16 12.2239 15.7761 12 15.5 12C14.6716 12 14 12.6716 14 13.5V14.5C14 14.7761 14.2239 15 14.5 15C15.3284 15 16 14.3284 16 13.5V12.5Z" fill="#007DF9"/>
</svg>
