<svg width="24" height="25" viewBox="0 0 24 25" fill="none" xmlns="http://www.w3.org/2000/svg">
<rect y="0.804565" width="24" height="24" rx="4" fill="#F0F7EA"/>
<path d="M9.48798 13.7614C9.52127 13.6258 9.39559 13.5062 9.26126 13.5443C9.02922 13.6101 8.20815 14.0342 8.20815 14.0342C6.92262 15.6857 5.42447 17.9617 4.0576 20.9202C3.91328 21.2325 4.04951 21.6027 4.36181 21.7469C4.43465 21.7806 4.51069 21.799 4.58617 21.8035C4.83452 21.8181 5.0779 21.6822 5.18854 21.4427C6.4182 18.7811 7.75407 16.6968 8.92731 15.1432C8.92731 15.1432 9.40997 14.079 9.48798 13.7614Z" fill="#9EC63D"/>
<path d="M8.92713 15.1432C9.19523 14.7882 9.4549 14.4608 9.70282 14.1606L10.4957 13.4569L10.8452 12.1553L9.59169 12.5152L8.78682 13.3137C8.59986 13.539 8.40636 13.7794 8.20801 14.0343C8.4393 14.0001 8.67263 13.9498 8.90467 13.884C9.03896 13.846 9.16468 13.9656 9.13139 14.1012C9.05334 14.4188 8.94633 14.8946 8.92713 15.1432Z" fill="#93B230"/>
<path d="M13.8654 12.1553C13.8654 12.1554 13.8655 12.1554 13.8656 12.1555C13.8655 12.1554 13.8655 12.1554 13.8654 12.1553L14.1588 12.069C15.9393 13.4734 18.4676 13.5059 19.0456 12.3322C19.0925 12.2368 19.1516 11.9883 19.1516 11.738C18.9584 11.0485 18.208 10.6455 18.208 10.6455L18.4308 10.1633C18.6682 9.98866 19.1516 9.55268 19.1516 8.89987C19.1273 8.81008 19.0926 8.71744 19.0456 8.62206C18.4351 7.38217 15.6483 7.48831 13.8655 9.13563C13.8655 9.13566 13.8654 9.1357 13.8654 9.13573L14.1158 8.42579C14.8499 7.56361 15.2035 6.457 15.2035 5.46977C15.1402 4.76043 14.8616 4.19314 14.3791 3.95556C13.1345 3.34278 12.3556 4.79309 12.3556 4.79309C12.3556 4.79309 11.5766 3.34278 10.3321 3.95556C9.84955 4.19314 9.57097 4.76039 9.50766 5.46974C9.50766 6.55951 9.84846 7.57729 10.5826 8.43946L10.8457 9.1357C9.06296 7.48827 6.27606 7.3821 5.6656 8.62203C5.61863 8.71744 5.5839 8.81004 5.55957 8.89983C5.55957 9.60886 6.043 9.98859 6.28031 10.1633L6.50313 10.6455C6.50313 10.6455 5.75279 11.0485 5.55957 11.7379C5.55957 11.9885 5.6186 12.2368 5.6656 12.3321C6.2435 13.5059 8.77184 13.4734 10.5524 12.069L10.8458 12.1553C10.0267 13.0417 9.5888 14.1762 9.50769 15.1681C9.50769 15.9821 9.84959 16.7611 10.3321 16.9986C11.2655 17.4582 11.937 16.7573 12.2144 16.3781C12.2841 16.283 12.4272 16.283 12.4967 16.3781C12.7742 16.7573 13.4457 17.4582 14.3791 16.9986C14.8616 16.761 15.2035 16.1023 15.2035 15.1681C15.1224 14.1762 14.6845 13.0417 13.8654 12.1553Z" fill="#B7E546"/>
<path d="M14.3794 16.6823C13.446 17.1418 12.7745 16.4409 12.4971 16.0618C12.4274 15.9666 12.2843 15.9666 12.2148 16.0618C11.9373 16.4409 11.2658 17.1418 10.3324 16.6823C9.84989 16.4447 9.57132 15.8774 9.508 15.1681C9.42598 16.1712 9.70895 17.0285 10.3324 17.3355C11.5769 17.9482 12.3559 16.4979 12.3559 16.4979C12.3559 16.4979 13.1349 17.9482 14.3794 17.3355C15.0029 17.0285 15.2858 16.1712 15.2038 15.1681C15.1405 15.8774 14.8619 16.4447 14.3794 16.6823Z" fill="#ABD641"/>
<path d="M10.8461 9.13572V8.68871C10.8461 8.55824 10.7985 8.43273 10.7139 8.33338C9.97979 7.47121 9.58467 6.40682 9.50806 5.46973C9.40871 6.58313 9.83983 8.04672 10.8461 9.13572Z" fill="#ABD641"/>
<path d="M5.55951 8.89984C5.2667 9.98135 6.50307 10.6455 6.50307 10.6455V10.286C6.50307 10.1124 6.4201 9.94975 6.28025 9.84685C6.04291 9.67219 5.68456 9.34597 5.55951 8.89984Z" fill="#ABD641"/>
<path d="M13.8652 9.13572V8.68871C13.8652 8.55824 13.9129 8.43273 13.9975 8.33338C14.7316 7.47121 15.1267 6.40682 15.2033 5.46973C15.3027 6.58313 14.8715 8.04672 13.8652 9.13572Z" fill="#ABD641"/>
<path d="M19.1516 8.89984C19.4444 9.98135 18.208 10.6455 18.208 10.6455V10.286C18.208 10.1124 18.291 9.94975 18.4308 9.84685C18.6682 9.67219 19.0265 9.34597 19.1516 8.89984Z" fill="#ABD641"/>
<path d="M5.66563 12.0157C5.61866 11.9203 5.58393 11.8277 5.5596 11.7379C5.48419 12.007 5.49361 12.3196 5.66563 12.669C6.27612 13.9089 9.06299 13.8027 10.8458 12.1553V11.895C10.8458 11.7436 10.6713 11.6588 10.5524 11.7526C8.77187 13.157 6.24357 13.1895 5.66563 12.0157Z" fill="#ABD641"/>
<path d="M10.8461 12.1553C10.8137 12.1903 10.7822 12.2258 10.751 12.2616C10.7827 12.2265 10.8144 12.1916 10.8461 12.1553Z" fill="#ABD641"/>
<path d="M19.0454 12.0157C19.0923 11.9203 19.1271 11.8277 19.1514 11.7379C19.2268 12.007 19.2174 12.3196 19.0454 12.669C18.4349 13.9089 15.648 13.8027 13.8652 12.1553V11.895C13.8652 11.7436 14.0398 11.6588 14.1586 11.7526C15.9391 13.157 18.4674 13.1895 19.0454 12.0157Z" fill="#ABD641"/>
<path d="M13.8652 12.1553C13.8976 12.1903 13.9291 12.2258 13.9603 12.2616C13.9286 12.2265 13.8969 12.1916 13.8652 12.1553Z" fill="#ABD641"/>
</svg>
