<svg width="24" height="25" viewBox="0 0 24 25" fill="none" xmlns="http://www.w3.org/2000/svg">
<rect y="0.804565" width="24" height="24" rx="4" fill="#FFF1E6"/>
<mask id="mask0_157_8744" style="mask-type:luminance" maskUnits="userSpaceOnUse" x="3" y="3" width="18" height="19">
<path d="M3 3.80457H21V21.8046H3V3.80457Z" fill="white"/>
</mask>
<g mask="url(#mask0_157_8744)">
<path d="M14.9657 9.7074H4.78201C4.0934 9.7074 3.53516 9.14915 3.53516 8.46055V8.45879C3.53516 7.77015 4.0934 7.21197 4.78201 7.21197H14.9657V9.7074Z" fill="#FFE20D"/>
<path d="M11.3969 15.0619L3.85912 9.84047C3.09514 9.31127 2.9042 8.2627 3.43253 7.4978L3.43278 7.49749C3.96156 6.73192 5.01055 6.54064 5.77524 7.07034L13.313 12.2918C14.077 12.821 14.2679 13.8696 13.7396 14.6344L13.7394 14.6348C13.2105 15.4003 12.1615 15.5916 11.3969 15.0619Z" fill="#FFBE00"/>
<path d="M12.3694 21.537H5.39844L6.03512 19.2101H11.7327L12.3694 21.537Z" fill="#8CAABD"/>
<path d="M11.7328 19.21H10.3057L10.9423 21.5369H12.3695L11.7328 19.21Z" fill="#809CAD"/>
<path d="M13.4046 21.2694H4.36429C4.21649 21.2694 4.09668 21.3892 4.09668 21.537C4.09668 21.6848 4.21649 21.8046 4.36429 21.8046H13.4046C13.5524 21.8046 13.6722 21.6848 13.6722 21.537C13.6722 21.3892 13.5524 21.2694 13.4046 21.2694Z" fill="#BFD6E6"/>
<path d="M10.9544 19.21H6.81445V15.9216H10.9544V19.21Z" fill="#FFBE00"/>
<path d="M13.0955 15.4954L7.98161 17.4504C6.98718 17.8306 5.87307 17.3318 5.49367 16.3367L5.49321 16.3354C5.11419 15.3411 5.61218 14.2276 6.60573 13.8477L11.7196 11.8927C12.714 11.5126 13.8282 12.0113 14.2075 13.0065L14.208 13.0077C14.587 14.002 14.0891 15.1155 13.0955 15.4954Z" fill="#FFE20D"/>
<path d="M14.2081 13.0077L14.2076 13.0065C13.8283 12.0113 12.7141 11.5126 11.7197 11.8927L11.6932 11.9028C12.1763 12.0956 12.5805 12.4819 12.7805 13.0065L12.7809 13.0077C13.16 14.002 12.662 15.1155 11.6684 15.4954L6.58105 17.4403C7.0145 17.6132 7.51146 17.6301 7.98171 17.4504L13.0956 15.4954C14.0892 15.1155 14.5872 14.002 14.2081 13.0077Z" fill="#F7D900"/>
<path d="M13.3199 13.6993C13.3199 14.2539 12.8709 14.7034 12.3172 14.7034C11.7634 14.7034 11.3145 14.2539 11.3145 13.6993C11.3145 13.1447 11.7634 12.6952 12.3172 12.6952C12.8709 12.6952 13.3199 13.1447 13.3199 13.6993Z" fill="#8CAABD"/>
<path d="M5.60429 8.5063C5.60429 8.92944 5.26176 9.27246 4.83925 9.27246C4.41671 9.27246 4.07422 8.92944 4.07422 8.5063C4.07422 8.0832 4.41671 7.74018 4.83925 7.74018C5.26176 7.74018 5.60429 8.0832 5.60429 8.5063Z" fill="#8CAABD"/>
<path d="M13.8975 9.11021C14.2561 9.69869 15.0232 9.88555 15.6108 9.52752L16.2489 9.13876L16.4683 9.00509L18.7605 9.80029C18.9872 9.87915 19.2283 9.8473 19.4211 9.72984C19.5399 9.65742 19.6404 9.55251 19.7079 9.42099L20.7805 7.33032C20.9767 6.94775 20.8257 6.47806 20.4431 6.28115C20.0606 6.08431 19.5913 6.23482 19.3951 6.61735L18.6311 8.10647L16.6666 7.4232L16.9602 5.36421L18.6131 5.36811C19.0363 5.36913 19.3983 5.04059 19.4128 4.61763C19.428 4.17529 19.0744 3.81118 18.6355 3.81013L16.2857 3.80457C15.8979 3.80369 15.5689 4.08846 15.5142 4.47258L15.172 6.87259L14.3123 7.39634C13.7246 7.75441 13.5389 8.52173 13.8975 9.11021Z" fill="#8CAABD"/>
<path d="M17.5651 3.81009C18.0039 3.81114 18.3576 4.17526 18.3423 4.61759C18.3285 5.02003 18.0001 5.33675 17.6037 5.36568L18.613 5.36804C19.0362 5.36909 19.3982 5.04056 19.4127 4.61759C19.4279 4.17526 19.0743 3.81114 18.6355 3.81009L16.2856 3.80454C16.2671 3.8045 16.2487 3.8057 16.2305 3.80693L17.5651 3.81009Z" fill="#809CAD"/>
<path d="M15.7859 8.76846L15.1782 9.13869L14.5401 9.52749C14.5033 9.54992 14.4658 9.57017 14.4277 9.58834C14.7944 9.76219 15.2383 9.75417 15.6104 9.52749L16.4679 9.00503L15.7859 8.76846Z" fill="#809CAD"/>
<path d="M20.4424 6.28115C20.1403 6.12566 19.7842 6.187 19.5511 6.40807C19.7967 6.6402 19.8713 7.01483 19.7094 7.33032L18.6368 9.42099C18.5829 9.52614 18.5076 9.61393 18.4189 9.68203L18.7598 9.80029C18.9865 9.87915 19.2276 9.8473 19.4204 9.72984C19.5392 9.65742 19.6397 9.55251 19.7072 9.42099L20.7798 7.33032C20.976 6.94775 20.825 6.47806 20.4424 6.28115Z" fill="#809CAD"/>
<path d="M14.9313 8.74371C15.2757 8.74371 15.2763 8.20853 14.9313 8.20853C14.587 8.20853 14.5864 8.74371 14.9313 8.74371Z" fill="white"/>
</g>
</svg>
