<svg width="24" height="25" viewBox="0 0 24 25" fill="none" xmlns="http://www.w3.org/2000/svg">
<rect y="0.804565" width="24" height="24" rx="4" fill="#E6F2FE"/>
<path d="M12.2502 15.5638C10.6524 15.5638 9.35742 14.2686 9.35742 12.6711V5.69732C9.35742 4.09982 10.6524 2.80457 12.2502 2.80457C13.8479 2.80457 15.1429 4.09982 15.1429 5.69732V12.6711C15.1429 14.2688 13.8479 15.5638 12.2502 15.5638Z" fill="#4183F3"/>
<path d="M11.1133 18.9173H13.3853V22.8045H11.1133V18.9173Z" fill="#35A551"/>
<path d="M17.2254 12.6623C17.2254 15.4108 14.9979 17.6648 12.2492 17.6648C10.9772 17.6648 9.81694 17.1818 8.93719 16.3905L7.33594 17.9918C8.62769 19.1833 10.3534 19.9115 12.2494 19.9115C16.2529 19.9115 19.4987 16.6663 19.4987 12.6623H17.2254Z" fill="#E64236"/>
<path d="M7.273 12.6623H5C5 14.77 5.89975 16.6673 7.33575 17.992L8.937 16.3908C7.916 15.4723 7.273 14.1388 7.273 12.6623Z" fill="#F7B809"/>
</svg>
